<svg width="80" height="80" viewBox="0 0 80 80" fill="none" xmlns="http://www.w3.org/2000/svg">
<mask id="path-1-inside-1_170_4345" fill="white">
<path d="M74.5588 19.8464C76.3044 22.8335 73.1393 25.8158 69.9057 24.5857C58.7243 20.3322 45.2747 16.661 30.623 14.1191C27.1467 13.516 23.7125 12.9957 20.3366 12.5559C16.9703 12.1174 15.6395 8.09245 18.5004 6.26506C24.7094 2.29906 32.086 0 40 0C54.742 7.7868e-05 67.6211 7.97524 74.5588 19.8464ZM75.8635 57.7288C75.2929 58.8807 74.1548 59.6297 72.8751 59.7512C59.4158 61.0292 41.9936 60.2452 23.1865 56.9824C16.4927 55.8211 10.0702 54.4218 4.02145 52.844C2.71236 52.5025 1.66119 51.5131 1.31664 50.2048C0.458677 46.947 0 43.5272 0 40C0 31.4636 2.67474 23.5523 7.23101 17.0571C8.00073 15.9598 9.31294 15.3951 10.648 15.5144C16.83 16.0666 23.2986 16.9085 29.9395 18.0605C48.6976 21.3148 65.3276 26.4269 77.561 32.1456C78.7187 32.6868 79.5367 33.7652 79.6939 35.0334C79.8957 36.6607 80 38.3182 80 40C80 46.367 78.5105 52.3855 75.8635 57.7288ZM40 80C26.9798 80 15.414 73.7783 8.11039 64.1464C6.06818 61.4531 8.68113 58.142 11.9831 58.864C15.4074 59.6128 18.9192 60.3021 22.5029 60.9238C37.2556 63.4832 51.2466 64.5538 63.2628 64.2951C66.7088 64.2209 68.701 68.0714 66.0893 70.3208C59.0854 76.353 49.9687 79.9999 40 80Z"/>
</mask>
<path d="M30.623 14.1191L30.9649 12.1486L30.9649 12.1486L30.623 14.1191ZM40 0L40 -2H40V0ZM23.1865 56.9824L22.8447 58.953L22.8447 58.953L23.1865 56.9824ZM29.9395 18.0605L30.2813 16.09L30.2813 16.09L29.9395 18.0605ZM40 80L40 82L40 82L40 80ZM22.5029 60.9238L22.1611 62.8944L22.5029 60.9238ZM77.561 32.1456L78.4079 30.3338L77.561 32.1456ZM79.6939 35.0334L81.6787 34.7873L79.6939 35.0334ZM7.23101 17.0571L5.59368 15.9085L7.23101 17.0571ZM10.648 15.5144L10.8259 13.5223L10.648 15.5144ZM4.02145 52.844L3.51663 54.7792L4.02145 52.844ZM1.31664 50.2048L-0.617412 50.7142L1.31664 50.2048ZM72.8751 59.7512L73.0642 61.7423L72.8751 59.7512ZM75.8635 57.7288L77.6557 58.6166L75.8635 57.7288ZM8.11039 64.1464L9.70405 62.9379L8.11039 64.1464ZM18.5004 6.26506L17.4238 4.57956L18.5004 6.26506ZM69.9057 24.5857L70.6168 22.7164C59.302 18.4121 45.7271 14.7096 30.9649 12.1486L30.623 14.1191L30.2812 16.0897C44.8223 18.6124 58.1466 22.2522 69.1946 26.455L69.9057 24.5857ZM30.623 14.1191L30.9649 12.1486C27.4609 11.5407 23.9989 11.0161 20.5949 10.5727L20.3366 12.5559L20.0782 14.5392C23.4262 14.9753 26.8324 15.4914 30.2812 16.0897L30.623 14.1191ZM18.5004 6.26506L19.577 7.95056C25.4742 4.18375 32.4788 2 40 2V0V-2C31.6931 -2 23.9447 0.414367 17.4238 4.57956L18.5004 6.26506ZM40 0L40 2C54.0024 2.00007 66.2382 9.5727 72.832 20.8556L74.5588 19.8464L76.2855 18.8373C69.004 6.37779 55.4817 -1.99992 40 -2L40 0ZM72.8751 59.7512L72.6861 57.7602C59.4402 59.0179 42.2002 58.2511 23.5284 55.0119L23.1865 56.9824L22.8447 58.953C41.787 62.2392 59.3914 63.0405 73.0642 61.7423L72.8751 59.7512ZM23.1865 56.9824L23.5284 55.0119C16.8884 53.8599 10.5203 52.4723 4.52627 50.9087L4.02145 52.844L3.51663 54.7792C9.62003 56.3713 16.0969 57.7823 22.8447 58.953L23.1865 56.9824ZM1.31664 50.2048L3.2507 49.6955C2.43595 46.6018 2 43.3531 2 40H0H-2C-2 43.7013 -1.5186 47.2923 -0.617412 50.7142L1.31664 50.2048ZM0 40H2C2 31.8879 4.54034 24.3755 8.86834 18.2056L7.23101 17.0571L5.59368 15.9085C0.809141 22.7292 -2 31.0392 -2 40H0ZM10.648 15.5144L10.47 17.5064C16.5963 18.0537 23.0102 18.8883 29.5976 20.0311L29.9395 18.0605L30.2813 16.09C23.587 14.9286 17.0638 14.0795 10.8259 13.5223L10.648 15.5144ZM29.9395 18.0605L29.5976 20.0311C48.2207 23.262 64.674 28.3291 76.714 33.9574L77.561 32.1456L78.4079 30.3338C65.9812 24.5247 49.1745 19.3677 30.2813 16.09L29.9395 18.0605ZM79.6939 35.0334L77.7091 35.2796C77.9009 36.8256 78 38.4009 78 40H80H82C82 38.2354 81.8906 36.4957 81.6787 34.7873L79.6939 35.0334ZM80 40H78C78 46.0518 76.5849 51.7672 74.0714 56.841L75.8635 57.7288L77.6557 58.6166C80.4361 53.0039 82 46.6822 82 40H80ZM40 80V78C27.6322 78 16.6459 72.0928 9.70405 62.9379L8.11039 64.1464L6.51674 65.3548C14.1821 75.4638 26.3274 82 40 82V80ZM11.9831 58.864L11.5558 60.8179C15.0087 61.5729 18.5489 62.2677 22.1611 62.8944L22.5029 60.9238L22.8448 58.9533C19.2895 58.3365 15.8062 57.6528 12.4103 56.9102L11.9831 58.864ZM22.5029 60.9238L22.1611 62.8944C37.025 65.4731 51.1456 66.5564 63.3058 66.2946L63.2628 64.2951L63.2197 62.2955C51.3476 62.5511 37.4862 61.4933 22.8448 58.9533L22.5029 60.9238ZM66.0893 70.3208L64.7841 68.8054C58.1294 74.5369 49.4718 77.9999 40 78L40 80L40 82C50.4657 81.9999 60.0414 78.1692 67.3945 71.8362L66.0893 70.3208ZM77.561 32.1456L76.714 33.9574C77.2796 34.2218 77.6407 34.7278 77.7091 35.2796L79.6939 35.0334L81.6787 34.7873C81.4326 32.8026 80.1577 31.1518 78.4079 30.3338L77.561 32.1456ZM7.23101 17.0571L8.86834 18.2056C9.19976 17.7332 9.79826 17.4464 10.47 17.5064L10.648 15.5144L10.8259 13.5223C8.82761 13.3438 6.80169 14.1864 5.59368 15.9085L7.23101 17.0571ZM4.02145 52.844L4.52627 50.9087C3.86735 50.7368 3.39879 50.2578 3.2507 49.6955L1.31664 50.2048L-0.617412 50.7142C-0.0764171 52.7684 1.55737 54.2681 3.51663 54.7792L4.02145 52.844ZM63.2628 64.2951L63.3058 66.2946C64.2449 66.2744 64.8882 66.7765 65.1503 67.3136C65.28 67.5794 65.309 67.8344 65.2683 68.0516C65.2303 68.2545 65.1144 68.5209 64.7841 68.8054L66.0893 70.3208L67.3945 71.8362C69.4337 70.0799 69.7195 67.5565 68.7452 65.5596C67.8026 63.6276 65.7268 62.2415 63.2197 62.2955L63.2628 64.2951ZM72.8751 59.7512L73.0642 61.7423C74.9984 61.5586 76.7625 60.4196 77.6557 58.6166L75.8635 57.7288L74.0714 56.841C73.8233 57.3417 73.3113 57.7008 72.6861 57.7602L72.8751 59.7512ZM8.11039 64.1464L9.70405 62.9379C9.25363 62.3439 9.33711 61.8294 9.63905 61.4293C9.97988 60.9777 10.6687 60.6239 11.5558 60.8179L11.9831 58.864L12.4103 56.9102C9.99549 56.3822 7.72688 57.3229 6.4463 59.0196C5.12683 60.7679 4.92495 63.2555 6.51674 65.3548L8.11039 64.1464ZM20.3366 12.5559L20.5949 10.5727C19.6897 10.4548 19.1613 9.88537 18.9952 9.34435C18.8484 8.86608 18.9454 8.35401 19.577 7.95056L18.5004 6.26506L17.4238 4.57956C15.1945 6.0035 14.5265 8.4176 15.1714 10.5183C15.797 12.5562 17.6172 14.2186 20.0782 14.5392L20.3366 12.5559ZM69.9057 24.5857L69.1946 26.455C71.5456 27.3494 73.972 26.7344 75.5048 25.2205C77.0907 23.6542 77.6482 21.1691 76.2855 18.8373L74.5588 19.8464L72.832 20.8556C73.0534 21.2343 73.075 21.5233 73.0449 21.7243C73.0127 21.9397 72.9029 22.1683 72.6941 22.3745C72.2724 22.791 71.4994 23.0521 70.6168 22.7164L69.9057 24.5857Z" fill="white" mask="url(#path-1-inside-1_170_4345)"/>
</svg>
