<svg width="756" height="760" viewBox="0 0 756 760" fill="none" xmlns="http://www.w3.org/2000/svg">
<path d="M704.149 188.835C720.623 217.168 690.752 245.456 660.235 233.788C554.711 193.442 427.78 158.619 289.505 134.508C256.697 128.787 224.287 123.852 192.427 119.68C160.657 115.521 148.098 77.3422 175.098 60.0085C233.695 22.3892 303.312 0.581543 378 0.581543C517.128 0.582267 638.674 76.2304 704.149 188.835ZM716.462 548.166C711.077 559.092 700.336 566.197 688.259 567.349C561.237 579.472 396.815 572.035 219.323 541.086C156.15 530.07 95.5375 516.797 38.4524 501.831C26.0979 498.592 16.1775 489.207 12.9258 476.797C4.82878 445.895 0.5 413.457 0.5 380C0.5 299.028 25.7429 223.986 68.7427 162.376C76.0068 151.968 88.3908 146.611 100.99 147.743C159.333 152.981 220.381 160.966 283.054 171.894C460.084 202.762 617.029 251.253 732.482 305.497C743.408 310.631 751.128 320.86 752.611 332.89C754.516 348.325 755.5 364.047 755.5 380C755.5 440.394 741.443 497.482 716.462 548.166ZM378 759.418C255.122 759.418 145.97 700.403 77.0419 609.04C57.7684 583.493 82.4282 552.085 113.591 558.934C145.907 566.036 179.05 572.575 212.871 578.472C352.1 602.749 484.14 612.904 597.543 610.45C630.064 609.746 648.866 646.27 624.218 667.607C558.118 724.825 472.08 759.417 378 759.418Z" fill="white" style="fill:white;fill-opacity:1;"/>
</svg>
