<svg width="13" height="13" viewBox="0 0 13 13" fill="none" xmlns="http://www.w3.org/2000/svg">
<path d="M4.64399 5.08746V3.94746C4.64399 3.85145 4.68002 3.77942 4.76398 3.73145L7.05605 2.41147C7.36804 2.23148 7.74006 2.14752 8.12401 2.14752C9.56398 2.14752 10.476 3.26355 10.476 4.4515C10.476 4.53548 10.476 4.63149 10.464 4.7275L8.08799 3.33547C7.94401 3.25149 7.79996 3.25149 7.65598 3.33547L4.64399 5.08746ZM9.99599 9.5275V6.80344C9.99599 6.63538 9.92394 6.5154 9.77998 6.43142L6.76799 4.67943L7.75199 4.1154C7.83597 4.06745 7.908 4.06745 7.99198 4.1154L10.284 5.4354C10.9441 5.81944 11.388 6.63538 11.388 7.42735C11.388 8.33932 10.8481 9.17934 9.99599 9.5274V9.5275ZM3.93599 7.12751L2.95199 6.55154C2.86804 6.50358 2.832 6.43155 2.832 6.33554V3.69556C2.832 2.41157 3.816 1.43951 5.14803 1.43951C5.65209 1.43951 6.12 1.60757 6.5161 1.90753L4.1521 3.2756C4.00815 3.35956 3.93612 3.47955 3.93612 3.64759V7.12761L3.93599 7.12751ZM6.05402 8.35148L4.64399 7.5595V5.87956L6.05402 5.08759L7.46396 5.87956V7.5595L6.05402 8.35148ZM6.96001 11.9995C6.45597 11.9995 5.98807 11.8315 5.59197 11.5315L7.95594 10.1635C8.09992 10.0795 8.17195 9.95951 8.17195 9.79145V6.31145L9.168 6.88742C9.25196 6.93536 9.288 7.00739 9.288 7.1034V9.74338C9.288 11.0274 8.29194 11.9994 6.96001 11.9994V11.9995ZM4.11599 9.32355L1.82392 8.00354C1.16387 7.6195 0.719923 6.80356 0.719923 6.01159C0.719923 5.08759 1.27193 4.2596 2.12388 3.91157V6.64755C2.12388 6.81559 2.19593 6.93559 2.33989 7.01955L5.33995 8.75951L4.35595 9.32355C4.272 9.37149 4.19994 9.37149 4.11599 9.32355ZM3.98406 11.2915C2.62805 11.2915 1.63202 10.2715 1.63202 9.01153C1.63202 8.91552 1.64405 8.8195 1.65598 8.72349L4.01997 10.0915C4.16393 10.1755 4.30801 10.1755 4.45196 10.0915L7.46396 8.3516V9.49158C7.46396 9.58762 7.42794 9.65965 7.34396 9.70759L5.05192 11.0276C4.7399 11.2076 4.36788 11.2915 3.98394 11.2915H3.98406ZM6.96001 12.7195C8.41204 12.7195 9.62397 11.6875 9.90008 10.3195C11.2441 9.97144 12.1081 8.71144 12.1081 7.42748C12.1081 6.58743 11.7481 5.7715 11.1001 5.18348C11.1601 4.93145 11.1961 4.67943 11.1961 4.42754C11.1961 2.71156 9.80407 1.42748 8.19603 1.42748C7.87211 1.42748 7.56009 1.47542 7.24807 1.58348C6.70799 1.05546 5.96399 0.719482 5.14803 0.719482C3.69603 0.719482 2.48409 1.75142 2.20799 3.11947C0.864003 3.4675 0 4.7275 0 6.01146C0 6.85151 0.359961 7.66744 1.00798 8.25547C0.947984 8.50749 0.911971 8.75951 0.911971 9.0114C0.911971 10.7274 2.304 12.0115 3.91201 12.0115C4.23596 12.0115 4.54797 11.9635 4.85999 11.8555C5.39995 12.3835 6.14395 12.7195 6.96001 12.7195Z" fill="white"/>
</svg>
