<svg width="12" height="13" viewBox="0 0 12 13" fill="none" xmlns="http://www.w3.org/2000/svg">
<g clip-path="url(#clip0_128_3738)">
<path d="M4.63386 8.14715L8.62329 5.18556C8.81886 5.04036 9.09841 5.097 9.1916 5.32251C9.68208 6.51189 9.46295 7.9412 8.48709 8.92256C7.51125 9.90392 6.15346 10.1191 4.91239 9.62898L3.55664 10.2602C5.50118 11.5969 7.86247 11.2663 9.33803 9.78138C10.5084 8.60436 10.8709 6.99999 10.532 5.55319L10.535 5.55627C10.0435 3.43085 10.6559 2.58129 11.9103 0.844083C11.9399 0.802893 11.9697 0.761703 11.9993 0.719482L10.3487 2.37946V2.37431L4.63284 8.14819" fill="black"/>
<path d="M3.81124 8.86687C2.41556 7.52612 2.6562 5.45115 3.84709 4.25457C4.72771 3.36897 6.1705 3.00753 7.42999 3.53888L8.78266 2.91074C8.53895 2.73362 8.22665 2.54311 7.86825 2.40924C6.24832 1.73886 4.3089 2.07251 2.99207 3.39575C1.7254 4.66957 1.32708 6.62817 2.01109 8.29947C2.52206 9.54858 1.68444 10.4321 0.840686 11.3239C0.541684 11.64 0.241659 11.9562 0 12.2908L3.81022 8.8679" fill="black"/>
</g>
<defs>
<clipPath id="clip0_128_3738">
<rect width="12" height="12" fill="white" transform="translate(0 0.719482)"/>
</clipPath>
</defs>
</svg>
