<svg width="86" height="86" viewBox="0 0 86 86" fill="none" xmlns="http://www.w3.org/2000/svg">
<g clip-path="url(#clip0_1_2)">
<path fill-rule="evenodd" clip-rule="evenodd" d="M42.7 85.4C66.3 85.4 85.4 66.3 85.4 42.7C85.4 19.1 66.3 0 42.7 0C19.1 0 0 19.1 0 42.7C0 66.3 19.1 85.4 42.7 85.4Z" fill="#E24B41"/>
<path fill-rule="evenodd" clip-rule="evenodd" d="M42.7 81.8C64.3 81.8 81.8 64.3 81.8 42.7C81.8 21.1 64.3 3.60001 42.7 3.60001C21.1 3.60001 3.60001 21.1 3.60001 42.7C3.60001 64.3 21.1 81.8 42.7 81.8Z" fill="#ED6A5F"/>
<g opacity="0.7">
<path d="M55.5829 23.8133C57.2335 22.1628 59.8465 22.1628 61.497 23.8133L61.5869 23.9031C63.2374 25.5537 63.2374 28.1667 61.5869 29.8172L29.8173 61.5867C28.1668 63.2373 25.5538 63.2373 23.9033 61.5867L23.8124 61.4969L23.7997 61.4842L23.787 61.4705C22.2608 59.8268 22.2608 57.2529 23.787 55.6092L23.7997 55.5955L23.8124 55.5828L55.5829 23.8133Z" fill="#460804" stroke="#460804" stroke-width="2"/>
<path d="M23.9295 23.787C25.5218 22.3086 27.9868 22.2624 29.6336 23.6484L29.7908 23.787L29.8045 23.7997L29.8172 23.8124L61.5867 55.5829C63.2373 57.2335 63.2373 59.8465 61.5867 61.497L61.4969 61.5869C59.8464 63.2374 57.2333 63.2374 55.5828 61.5869L23.8133 29.8173C22.1628 28.1668 22.1628 25.5538 23.8133 23.9033L23.9031 23.8124L23.9158 23.7997L23.9295 23.787Z" fill="#460804" stroke="#460804" stroke-width="2"/>
</g>
</g>
<defs>
<clipPath id="clip0_1_2">
<rect width="85.4" height="85.4" fill="white"/>
</clipPath>
</defs>
</svg>
