<svg width="1024" height="1024" viewBox="0 0 1024 1024" fill="none" xmlns="http://www.w3.org/2000/svg">
<g clip-path="url(#clip0_1_111)">
<path d="M660.196 957.754L661.507 961.991L641.784 968.089L631.727 935.564L636.37 934.128L645.117 962.416L660.196 957.754ZM691.576 946.085L693.166 950.15L674.093 957.608L661.695 925.901L680.768 918.443L682.357 922.508L667.877 928.17L671.631 937.772L685.299 932.428L686.794 936.251L673.126 941.596L677.096 951.747L691.576 946.085ZM700.311 937.168L704.588 935.12C706.457 938.149 709.896 938.83 713.811 936.955C717.684 935.101 719.226 931.93 717.749 928.844C716.556 926.354 714.215 925.671 709.767 926.597L706.642 927.283C700.309 928.589 696.367 927.076 694.228 922.607C691.66 917.245 694.042 911.84 700.298 908.845C706.277 905.981 712.003 907.451 714.724 912.531L710.468 914.569C708.691 911.731 705.611 911.035 702.185 912.676C698.503 914.439 697.126 917.243 698.522 920.159C699.724 922.669 702.013 923.352 706.26 922.443L709.406 921.8C716.046 920.373 719.832 921.778 722.053 926.417C724.764 932.077 722.274 937.638 715.613 940.827C709.081 943.956 703.258 942.558 700.311 937.168ZM730.914 922.204L735.032 919.852C737.115 922.738 740.594 923.169 744.364 921.016C748.092 918.886 749.401 915.612 747.705 912.641C746.336 910.244 743.951 909.731 739.581 910.977L736.514 911.887C730.292 913.647 726.251 912.423 723.794 908.12C720.846 902.957 722.831 897.395 728.854 893.955C734.611 890.667 740.429 891.719 743.509 896.589L739.411 898.929C737.434 896.228 734.312 895.756 731.013 897.64C727.469 899.664 726.298 902.561 727.901 905.367C729.281 907.785 731.613 908.301 735.784 907.087L738.874 906.219C745.395 904.315 749.272 905.443 751.823 909.909C754.935 915.359 752.853 921.085 746.44 924.747C740.151 928.339 734.243 927.366 730.914 922.204ZM797.955 890.15L794.516 892.838L773.546 866.019L777.151 863.2L803.649 874.796L803.928 874.578L788.247 854.524L791.686 851.835L812.656 878.654L809.088 881.445L782.509 869.822L782.23 870.04L797.955 890.15ZM829.955 844.291C836.302 851.275 836.518 858.634 830.704 863.918C824.89 869.202 817.584 868.285 811.237 861.301L807.604 857.303C801.257 850.319 801.04 842.96 806.855 837.676C812.669 832.392 819.974 833.309 826.321 840.293L829.955 844.291ZM827.689 860.601C831.286 857.332 830.874 852.669 826.272 847.606L822.67 843.642C818.069 838.579 813.466 837.724 809.869 840.993C806.273 844.262 806.685 848.925 811.286 853.988L814.888 857.951C819.49 863.015 824.092 863.869 827.689 860.601ZM861.604 832.329L848.676 845.951L845.579 843.011L850.354 837.98L831.855 820.422L827.08 825.453L823.983 822.514L836.911 808.892L840.008 811.832L835.233 816.863L853.732 834.42L858.507 829.389L861.604 832.329ZM863.5 816.549L866.502 812.878C869.481 814.826 872.884 813.982 875.632 810.622C878.35 807.298 878.399 803.772 875.751 801.606C873.614 799.859 871.204 800.234 867.57 802.963L865.033 804.91C859.854 808.783 855.643 809.088 851.808 805.951C847.205 802.187 847.066 796.283 851.457 790.913C855.654 785.781 861.462 784.679 866.083 788.122L863.096 791.775C860.281 789.961 857.197 790.64 854.793 793.58C852.209 796.74 852.153 799.864 854.655 801.91C856.81 803.672 859.173 803.318 862.631 800.691L865.206 798.773C870.611 794.66 874.635 794.324 878.616 797.58C883.475 801.553 883.582 807.645 878.908 813.361C874.322 818.968 868.458 820.177 863.5 816.549ZM901.873 774.149L905.446 776.656L893.685 793.42L865.815 773.868L877.576 757.103L881.149 759.61L872.22 772.338L880.66 778.259L889.088 766.246L892.449 768.603L884.021 780.617L892.944 786.877L901.873 774.149ZM918.447 756.463C917.165 758.61 914.322 759.276 912.155 757.982C909.967 756.676 909.224 753.869 910.506 751.722C911.788 749.575 914.611 748.897 916.799 750.203C918.966 751.497 919.729 754.316 918.447 756.463ZM934.807 697.053L946.431 701.851L944.801 705.798L913.332 692.809L915.366 687.88L937.13 689.385L937.256 689.079L920.758 674.817L922.802 669.866L954.271 682.856L952.642 686.803L941.018 682.005L928.479 676.395L928.344 676.723L942.836 689.596L941.45 692.955L922.096 691.858L921.961 692.185L934.807 697.053ZM952.053 645.289C961.015 648.245 964.826 654.544 962.365 662.005C959.905 669.467 953.095 672.264 944.132 669.309L939.001 667.617C930.039 664.662 926.228 658.362 928.688 650.901C931.149 643.44 937.959 640.642 946.921 643.597L952.053 645.289ZM958.108 660.602C959.63 655.986 956.977 652.13 950.479 649.987L945.392 648.31C938.894 646.168 934.468 647.689 932.946 652.305C931.424 656.921 934.077 660.777 940.575 662.919L945.662 664.596C952.159 666.739 956.586 665.217 958.108 660.602ZM958.786 624.322L957.093 631.073L969.978 634.303L968.79 639.04L935.767 630.762L938.613 619.411C940.305 612.66 945.194 609.458 951.442 611.025C955.744 612.103 958.723 615.355 959.075 619.384L974.527 616.155L973.185 621.511L958.786 624.322ZM941.005 627.04L953.249 630.109L954.74 624.159C955.825 619.834 954.219 616.829 950.328 615.853C946.438 614.878 943.587 616.742 942.537 620.93L941.005 627.04ZM976.295 583.135L980.595 583.885L977.075 604.059L943.537 598.207L947.057 578.033L951.357 578.783L948.684 594.1L958.841 595.872L961.364 581.415L965.408 582.121L962.885 596.578L973.623 598.451L976.295 583.135ZM985.854 524.581L985.546 536.208L951.513 535.304L951.817 523.842C951.986 517.474 955.248 513.761 960.507 513.901C964.257 514 967.281 516.535 967.778 520.041L968.132 520.051C968.655 515.486 972.109 512.509 976.613 512.629C982.58 512.788 986.049 517.27 985.854 524.581ZM955.65 530.576L966.146 530.855L966.275 525.973C966.395 521.468 964.598 518.942 961.249 518.853C957.876 518.763 955.904 521.024 955.795 525.151L955.65 530.576ZM981.617 531.266L981.765 525.7C981.903 520.511 980.016 517.817 976.101 517.713C972.303 517.613 970.274 520.273 970.135 525.509L969.99 530.957L981.617 531.266ZM972.256 490.356L972.583 497.309L985.851 496.686L986.08 501.565L952.072 503.16L951.524 491.47C951.198 484.518 954.956 480.043 961.39 479.741C965.82 479.534 969.611 481.789 971.11 485.545L984.974 477.998L985.233 483.512L972.256 490.356ZM956.015 498.086L968.623 497.494L968.336 491.367C968.127 486.913 965.723 484.498 961.716 484.686C957.71 484.874 955.517 487.48 955.72 491.793L956.015 498.086ZM967.012 445.173C976.381 444.038 982.508 448.121 983.453 455.92C984.397 463.72 979.422 469.147 970.053 470.282L964.69 470.931C955.321 472.066 949.194 467.984 948.249 460.184C947.305 452.385 952.28 446.958 961.649 445.823L967.012 445.173ZM979.003 456.459C978.418 451.634 974.377 449.272 967.585 450.095L962.268 450.739C955.475 451.561 952.115 454.82 952.7 459.645C953.284 464.47 957.325 466.832 964.118 466.01L969.434 465.366C976.227 464.543 979.587 461.284 979.003 456.459ZM956.918 425.539L956.973 425.817L978.302 426.307L979.173 430.729L946.867 442.883L945.983 438.392L958.498 434.053L971.87 429.545L971.811 429.244L952.027 428.787L951.216 424.666L969.35 416.744L969.291 416.443L955.208 417.34L941.982 418.068L941.098 413.577L975.6 412.58L976.47 417.002L956.918 425.539ZM963.8 401.764L962.543 397.192C965.856 395.89 967.136 392.626 965.986 388.44C964.848 384.3 962.001 382.22 958.702 383.126C956.04 383.858 954.952 386.041 955.075 390.583L955.195 393.78C955.357 400.244 953.169 403.855 948.391 405.168C942.658 406.744 937.762 403.441 935.924 396.752C934.167 390.36 936.629 384.985 942.111 383.209L943.361 387.759C940.254 389.005 939.022 391.912 940.029 395.575C941.111 399.511 943.626 401.364 946.743 400.507C949.427 399.769 950.505 397.638 950.364 393.297L950.29 390.088C950.063 383.299 952.117 379.822 957.076 378.459C963.128 376.796 968.159 380.233 970.116 387.354C972.036 394.338 969.628 399.82 963.8 401.764ZM955.996 345.761L962.293 363.454L958.27 364.886L955.944 358.351L931.917 366.903L934.243 373.438L930.219 374.87L923.922 357.177L927.945 355.745L930.271 362.28L954.299 353.728L951.973 347.193L955.996 345.761ZM949.267 328.829L951.028 332.823L919.876 346.556L918.03 342.367L935.785 319.534L935.642 319.21L912.348 329.479L910.587 325.485L941.739 311.752L943.567 315.897L925.766 338.802L925.909 339.126L949.267 328.829ZM918.398 289.311L915.792 290.693L919.253 297.217L915.751 299.074L909.958 288.152L916.315 284.781C922.13 281.696 928.336 283.88 931.652 290.133C935.455 297.303 932.924 303.96 924.774 308.282L919.209 311.234C911.06 315.556 904.128 313.918 900.326 306.748C896.943 300.37 898.697 294.312 904.935 290.817L907.257 295.194C903.614 297.339 902.46 301.156 904.351 304.72C906.739 309.222 911.052 309.952 916.888 306.857L922.453 303.905C928.31 300.799 930.104 296.829 927.694 292.286C925.671 288.471 922.129 287.332 918.398 289.311ZM914.269 260.804C915.594 262.925 914.888 265.758 912.748 267.096C910.587 268.447 907.751 267.826 906.425 265.705C905.1 263.585 905.786 260.764 907.946 259.413C910.087 258.075 912.943 258.683 914.269 260.804Z" fill="white" style="fill:white;fill-opacity:1;"/>
</g>
<defs>
<clipPath id="clip0_1_111">
<rect width="1024" height="1024" fill="white" style="fill:white;fill-opacity:1;"/>
</clipPath>
</defs>
</svg>
