<svg width="14" height="13" viewBox="0 0 14 13" fill="none" xmlns="http://www.w3.org/2000/svg">
<path d="M8.60395 2.47643C8.7526 3.10649 9.31838 3.57586 9.99398 3.57586C10.7827 3.57586 11.4222 2.93642 11.4222 2.14767C11.4222 1.35892 10.7827 0.719482 9.99398 0.719482C9.30432 0.719482 8.72916 1.20827 8.59525 1.85842C7.44024 1.98229 6.53833 2.96187 6.53833 4.14901C6.53833 4.15169 6.53833 4.1537 6.53833 4.15638C5.28222 4.20927 4.13525 4.56682 3.22464 5.13127C2.88651 4.86947 2.462 4.71346 2.00134 4.71346C0.895882 4.71346 0 5.60934 0 6.7148C0 7.51694 0.471376 8.20793 1.15233 8.52732C1.21861 10.8507 3.75025 12.7195 6.86441 12.7195C9.97857 12.7195 12.5136 10.8487 12.5765 8.5233C13.2521 8.20191 13.7195 7.51292 13.7195 6.71547C13.7195 5.61001 12.8236 4.71413 11.7181 4.71413C11.2595 4.71413 10.837 4.8688 10.4995 5.12859C9.58085 4.56013 8.42116 4.20258 7.15233 4.15504C7.15233 4.15303 7.15233 4.15169 7.15233 4.14968C7.15233 3.29933 7.7844 2.5936 8.60395 2.47777V2.47643ZM3.14429 7.98497C3.17777 7.25915 3.65986 6.70207 4.22029 6.70207C4.78072 6.70207 5.20924 7.29062 5.17576 8.01644C5.14228 8.74225 4.7238 9.00606 4.16271 9.00606C3.60161 9.00606 3.11081 8.71078 3.14429 7.98497ZM9.50921 6.70207C10.0703 6.70207 10.5524 7.25915 10.5852 7.98497C10.6187 8.71078 10.1272 9.00606 9.56679 9.00606C9.00636 9.00606 8.58721 8.74292 8.55373 8.01644C8.52025 7.29062 8.94811 6.70207 9.50921 6.70207ZM8.84232 9.66424C8.94744 9.67496 9.0144 9.7841 8.97355 9.88185C8.62872 10.7061 7.81453 11.2853 6.86441 11.2853C5.9143 11.2853 5.10077 10.7061 4.75527 9.88185C4.71443 9.7841 4.78139 9.67496 4.88651 9.66424C5.50251 9.60197 6.16873 9.56783 6.86441 9.56783C7.56009 9.56783 8.22564 9.60197 8.84232 9.66424Z" fill="white"/>
</svg>
