<?xml version="1.0" encoding="iso-8859-1"?>
<!-- Generator: Adobe Illustrator 26.1.0, SVG Export Plug-In . SVG Version: 6.00 Build 0)  -->
<svg version="1.1" id="Tone" xmlns="http://www.w3.org/2000/svg" xmlns:xlink="http://www.w3.org/1999/xlink" x="0px" y="0px"
	 viewBox="0 0 50 50" style="enable-background:new 0 0 50 50;" xml:space="preserve">
<g id="Line">
</g>
<g>
	<g>
		<polygon points="17,36.773 24,30.552 24,21.227 17,27.449 		"/>
	</g>
	<g>
		<polygon points="33,13.227 27.63,18 33,18 		"/>
	</g>
	<g>
		<polygon points="13,20 13,30 15,30 15,26.551 22.37,20 		"/>
	</g>
	<g>
		<polygon points="17,13.352 17,18 22.229,18 		"/>
	</g>
	<g>
		<path d="M5,5v40h40V5H5z M39,32h-4v9.352l-9-8V40h-2v-6.774l-9,8V32h-4V18h4V8.898l9,8V9.125h2v7.648l9-8V18h4V32z"/>
	</g>
	<g>
		<polygon points="35,26.676 35,30 37,30 37,20 27.49,20 		"/>
	</g>
	<g>
		<polygon points="26,30.677 33,36.898 33,27.574 26,21.352 		"/>
	</g>
</g>
</svg>