<svg width="1024" height="1024" viewBox="0 0 1024 1024" fill="none" xmlns="http://www.w3.org/2000/svg">
<g clip-path="url(#clip0_1_111)">
<path d="M660.196 957.754L661.507 961.991L641.784 968.089L631.727 935.564L636.37 934.128L645.117 962.416L660.196 957.754ZM691.576 946.085L693.166 950.15L674.093 957.608L661.695 925.901L680.768 918.443L682.357 922.508L667.877 928.17L671.631 937.772L685.299 932.428L686.794 936.251L673.126 941.596L677.096 951.747L691.576 946.085ZM700.311 937.168L704.588 935.12C706.457 938.149 709.896 938.83 713.812 936.955C717.685 935.101 719.227 931.929 717.749 928.844C716.557 926.354 714.215 925.671 709.767 926.597L706.643 927.283C700.31 928.589 696.368 927.076 694.228 922.607C691.66 917.245 694.042 911.84 700.298 908.844C706.278 905.981 712.004 907.451 714.724 912.531L710.469 914.569C708.691 911.731 705.611 911.035 702.185 912.676C698.504 914.438 697.126 917.243 698.522 920.158C699.725 922.669 702.014 923.352 706.261 922.443L709.406 921.8C716.047 920.373 719.832 921.778 722.054 926.416C724.764 932.077 722.274 937.638 715.614 940.827C709.081 943.955 703.259 942.558 700.311 937.168ZM730.914 922.203L735.032 919.851C737.115 922.737 740.594 923.168 744.364 921.015C748.093 918.886 749.402 915.612 747.705 912.641C746.336 910.244 743.951 909.731 739.582 910.977L736.515 911.886C730.293 913.647 726.252 912.422 723.795 908.12C720.846 902.957 722.831 897.395 728.855 893.955C734.612 890.667 740.429 891.719 743.509 896.589L739.412 898.929C737.434 896.227 734.312 895.756 731.014 897.639C727.469 899.664 726.298 902.56 727.901 905.367C729.282 907.785 731.614 908.3 735.784 907.087L738.875 906.218C745.395 904.315 749.272 905.442 751.823 909.909C754.935 915.358 752.854 921.085 746.441 924.747C740.151 928.339 734.243 927.366 730.914 922.203ZM797.955 890.15L794.516 892.838L773.546 866.019L777.151 863.2L803.649 874.796L803.928 874.578L788.247 854.523L791.686 851.835L812.656 878.654L809.088 881.445L782.509 869.822L782.23 870.04L797.955 890.15ZM829.955 844.291C836.302 851.275 836.518 858.634 830.704 863.918C824.89 869.202 817.585 868.285 811.238 861.301L807.604 857.302C801.257 850.318 801.041 842.959 806.855 837.675C812.669 832.391 819.974 833.308 826.321 840.292L829.955 844.291ZM827.689 860.6C831.286 857.332 830.874 852.669 826.272 847.605L822.671 843.642C818.069 838.579 813.467 837.724 809.87 840.993C806.273 844.262 806.685 848.924 811.287 853.988L814.889 857.951C819.49 863.015 824.092 863.869 827.689 860.6ZM861.604 832.329L848.676 845.951L845.578 843.011L850.353 837.98L831.855 820.422L827.08 825.454L823.982 822.514L836.911 808.892L840.008 811.832L835.233 816.863L853.732 834.421L858.507 829.389L861.604 832.329ZM863.5 816.549L866.502 812.878C869.481 814.826 872.884 813.982 875.632 810.621C878.35 807.297 878.399 803.772 875.751 801.606C873.614 799.858 871.204 800.234 867.571 802.962L865.033 804.91C859.855 808.783 855.643 809.087 851.808 805.951C847.205 802.187 847.066 796.283 851.457 790.913C855.654 785.781 861.462 784.679 866.083 788.122L863.096 791.775C860.282 789.961 857.197 790.639 854.793 793.58C852.209 796.74 852.153 799.864 854.655 801.91C856.811 803.672 859.173 803.318 862.631 800.691L865.206 798.773C870.611 794.66 874.635 794.324 878.617 797.58C883.475 801.553 883.582 807.645 878.908 813.361C874.322 818.968 868.458 820.177 863.5 816.549ZM901.873 774.149L905.446 776.656L893.685 793.42L865.815 773.868L877.576 757.103L881.149 759.61L872.22 772.338L880.66 778.259L889.088 766.246L892.449 768.603L884.021 780.617L892.944 786.877L901.873 774.149ZM918.448 756.463C917.165 758.61 914.322 759.276 912.155 757.982C909.967 756.675 909.225 753.869 910.507 751.722C911.789 749.574 914.611 748.897 916.799 750.203C918.967 751.497 919.73 754.315 918.448 756.463ZM934.807 697.053L946.431 701.85L944.802 705.798L913.332 692.808L915.366 687.88L937.13 689.384L937.256 689.079L920.758 674.816L922.802 669.866L954.271 682.855L952.642 686.803L941.018 682.005L928.479 676.395L928.344 676.722L942.837 689.596L941.45 692.954L922.097 691.857L921.962 692.184L934.807 697.053ZM952.053 645.289C961.015 648.245 964.826 654.544 962.365 662.006C959.905 669.467 953.095 672.264 944.132 669.309L939.001 667.617C930.039 664.662 926.228 658.363 928.688 650.901C931.149 643.44 937.959 640.642 946.922 643.598L952.053 645.289ZM958.108 660.602C959.63 655.986 956.977 652.13 950.479 649.987L945.392 648.31C938.895 646.168 934.468 647.689 932.946 652.305C931.424 656.921 934.077 660.777 940.575 662.919L945.662 664.596C952.159 666.739 956.586 665.218 958.108 660.602ZM958.786 624.322L957.093 631.073L969.978 634.303L968.79 639.04L935.767 630.762L938.613 619.411C940.305 612.66 945.194 609.458 951.442 611.025C955.744 612.103 958.723 615.355 959.075 619.384L974.527 616.155L973.185 621.51L958.786 624.322ZM941.005 627.04L953.249 630.109L954.74 624.159C955.825 619.834 954.219 616.829 950.328 615.853C946.438 614.878 943.587 616.742 942.537 620.93L941.005 627.04ZM976.295 583.135L980.595 583.885L977.075 604.059L943.537 598.207L947.057 578.033L951.357 578.783L948.684 594.1L958.841 595.872L961.364 581.415L965.408 582.121L962.885 596.578L973.623 598.451L976.295 583.135ZM985.854 524.58L985.546 536.207L951.513 535.303L951.817 523.841C951.986 517.473 955.248 513.76 960.507 513.9C964.257 513.999 967.281 516.534 967.778 520.04L968.132 520.05C968.655 515.485 972.109 512.508 976.613 512.628C982.58 512.787 986.049 517.269 985.854 524.58ZM955.651 530.575L966.146 530.854L966.275 525.972C966.395 521.467 964.598 518.941 961.249 518.852C957.876 518.762 955.904 521.023 955.795 525.15L955.651 530.575ZM981.617 531.265L981.765 525.699C981.903 520.51 980.016 517.816 976.101 517.712C972.304 517.612 970.274 520.272 970.135 525.508L969.99 530.956L981.617 531.265ZM972.256 490.356L972.583 497.308L985.851 496.686L986.08 501.564L952.072 503.159L951.524 491.47C951.198 484.518 954.956 480.043 961.39 479.741C965.82 479.533 969.611 481.788 971.11 485.544L984.974 477.997L985.233 483.512L972.256 490.356ZM956.015 498.085L968.623 497.494L968.336 491.366C968.127 486.912 965.723 484.498 961.716 484.686C957.71 484.873 955.517 487.48 955.72 491.793L956.015 498.085ZM967.012 445.173C976.381 444.038 982.508 448.121 983.453 455.92C984.397 463.72 979.422 469.147 970.054 470.282L964.69 470.931C955.321 472.066 949.194 467.984 948.25 460.184C947.305 452.385 952.28 446.958 961.649 445.823L967.012 445.173ZM979.003 456.459C978.418 451.634 974.377 449.272 967.585 450.095L962.268 450.739C955.476 451.561 952.115 454.82 952.7 459.645C953.284 464.47 957.325 466.832 964.118 466.01L969.434 465.366C976.227 464.543 979.587 461.284 979.003 456.459ZM956.918 425.539L956.973 425.817L978.302 426.307L979.173 430.728L946.867 442.883L945.983 438.392L958.498 434.053L971.87 429.545L971.811 429.244L952.027 428.786L951.216 424.665L969.35 416.743L969.291 416.442L955.208 417.339L941.982 418.067L941.098 413.576L975.6 412.58L976.47 417.001L956.918 425.539ZM963.8 401.764L962.544 397.192C965.856 395.89 967.136 392.626 965.986 388.44C964.848 384.3 962.001 382.22 958.702 383.126C956.04 383.858 954.952 386.041 955.075 390.583L955.195 393.78C955.357 400.244 953.169 403.855 948.391 405.168C942.658 406.744 937.762 403.441 935.924 396.752C934.167 390.36 936.629 384.985 942.111 383.209L943.361 387.759C940.254 389.005 939.022 391.912 940.029 395.575C941.111 399.511 943.626 401.364 946.743 400.507C949.427 399.769 950.505 397.638 950.364 393.297L950.29 390.087C950.063 383.299 952.117 379.822 957.076 378.459C963.128 376.796 968.159 380.233 970.116 387.354C972.036 394.338 969.628 399.82 963.8 401.764ZM955.996 345.761L962.293 363.454L958.27 364.886L955.944 358.351L931.917 366.903L934.243 373.438L930.22 374.87L923.922 357.177L927.945 355.745L930.271 362.28L954.299 353.728L951.973 347.193L955.996 345.761ZM949.267 328.828L951.028 332.822L919.876 346.555L918.029 342.367L935.784 319.534L935.642 319.21L912.348 329.479L910.587 325.485L941.739 311.752L943.566 315.897L925.766 338.802L925.908 339.126L949.267 328.828ZM918.463 289.332L915.855 290.709L919.301 297.24L915.795 299.09L910.026 288.156L916.39 284.797C922.212 281.725 928.413 283.922 931.716 290.182C935.504 297.36 932.958 304.012 924.799 308.317L919.228 311.257C911.069 315.562 904.141 313.909 900.354 306.731C896.985 300.346 898.752 294.291 904.997 290.809L907.309 295.191C903.662 297.329 902.501 301.143 904.383 304.711C906.762 309.218 911.073 309.958 916.916 306.875L922.487 303.935C928.351 300.841 930.153 296.876 927.753 292.327C925.738 288.508 922.198 287.361 918.463 289.332Z" fill="white" style="fill:white;fill-opacity:1;"/>
</g>
<defs>
<clipPath id="clip0_1_111">
<rect width="1024" height="1024" fill="white" style="fill:white;fill-opacity:1;"/>
</clipPath>
</defs>
</svg>
