<svg width="1024" height="1024" viewBox="0 0 1024 1024" fill="none" xmlns="http://www.w3.org/2000/svg">
<path d="M866.228 304.377C884.12 335.149 851.678 365.873 818.533 353.2C703.924 309.381 566.066 271.56 415.886 245.373C380.254 239.159 345.053 233.799 310.45 229.268C275.946 224.751 262.305 183.286 291.629 164.46C355.271 123.602 430.881 99.9164 512 99.9164C663.105 99.9172 795.116 182.078 866.228 304.377ZM879.601 694.644C873.752 706.511 862.087 714.227 848.97 715.479C711.012 728.645 532.434 720.568 339.662 686.954C271.05 674.99 205.22 660.575 143.22 644.32C129.802 640.802 119.027 630.609 115.496 617.131C106.701 583.569 102 548.338 102 512C102 424.057 129.416 342.554 176.118 275.64C184.007 264.336 197.458 258.518 211.142 259.747C274.507 265.436 340.811 274.109 408.88 285.977C601.15 319.503 771.608 372.169 897 431.083C908.867 436.659 917.251 447.769 918.862 460.834C920.931 477.598 922 494.674 922 512C922 577.593 906.733 639.597 879.601 694.644ZM512 924.084C378.543 924.084 259.994 859.987 185.132 760.758C164.199 733.012 190.982 698.901 224.827 706.339C259.926 714.053 295.922 721.154 332.655 727.559C483.87 753.926 627.278 764.955 750.444 762.29C785.765 761.526 806.185 801.194 779.415 824.368C707.625 886.512 614.179 924.083 512 924.084Z" fill="white" style="fill:white;fill-opacity:1;"/>
</svg>
