<svg width="80" height="80" viewBox="0 0 80 80" fill="none" xmlns="http://www.w3.org/2000/svg">
<path d="M74.5588 19.8465C76.3044 22.8335 73.1393 25.8158 69.9057 24.5857C58.7243 20.3322 45.2747 16.661 30.623 14.1191C27.1467 13.516 23.7125 12.9957 20.3366 12.5559C16.9703 12.1174 15.6395 8.09245 18.5004 6.26506C24.7094 2.29906 32.086 0 40 0C54.742 7.62939e-05 67.6211 7.97524 74.5588 19.8465ZM75.8635 57.7288C75.2929 58.8807 74.1548 59.6297 72.8751 59.7512C59.4158 61.0292 41.9936 60.2452 23.1865 56.9824C16.4927 55.8211 10.0702 54.4218 4.02145 52.844C2.71236 52.5025 1.66119 51.5131 1.31664 50.2048C0.458679 46.947 0 43.5272 0 40C0 31.4636 2.67474 23.5523 7.23101 17.0571C8.00072 15.9598 9.31293 15.3951 10.648 15.5144C16.83 16.0666 23.2986 16.9085 29.9395 18.0605C48.6976 21.3148 65.3276 26.4269 77.561 32.1456C78.7187 32.6868 79.5367 33.7652 79.6939 35.0334C79.8957 36.6607 80 38.3182 80 40C80 46.367 78.5105 52.3855 75.8635 57.7288ZM40 80C26.9798 80 15.414 73.7783 8.1104 64.1464C6.06818 61.4531 8.68113 58.142 11.9831 58.864C15.4074 59.6128 18.9192 60.3021 22.5029 60.9238C37.2556 63.4832 51.2466 64.5538 63.2628 64.2951C66.7088 64.2209 68.701 68.0714 66.0893 70.3208C59.0854 76.353 49.9687 79.9999 40 80Z" fill="white"/>
</svg>
